<?xml version="1.0" standalone="no"?>
<!DOCTYPE svg PUBLIC "-//W3C//DTD SVG 20010904//EN"
 "http://www.w3.org/TR/2001/REC-SVG-20010904/DTD/svg10.dtd">
<svg version="1.0" xmlns="http://www.w3.org/2000/svg"
 width="120.000000pt" height="120.000000pt" viewBox="0 0 120.000000 120.000000"
 preserveAspectRatio="xMidYMid meet">
<metadata>
Created by potrace 1.14, written by Peter Selinger 2001-2017
</metadata>
<g transform="translate(0.000000,120.000000) scale(0.100000,-0.100000)"
fill="#000000" stroke="none">
<path d="M609 1043 c-1 -5 -1 -11 0 -15 0 -4 -13 -5 -29 -3 -17 2 -28 0 -25
-6 6 -9 -8 -13 -34 -9 -11 1 -12 -2 -4 -12 8 -10 -3 -27 -52 -77 -44 -44 -65
-59 -70 -50 -6 8 -4 10 5 4 9 -6 11 -4 6 4 -10 16 -20 5 -21 -21 0 -12 -7 -23
-15 -25 -13 -4 -13 -3 0 7 13 10 13 11 0 7 -8 -2 -16 -9 -16 -15 -1 -7 -2 -16
-3 -22 0 -5 -11 -10 -23 -10 -18 0 -20 -2 -8 -10 13 -8 13 -11 1 -22 -12 -11
-13 -10 -6 2 5 8 5 12 0 8 -4 -4 -17 -3 -29 3 -20 10 -20 9 -3 -5 20 -15 16
-58 -5 -53 -6 1 -13 -5 -15 -13 -4 -13 -3 -13 6 0 6 8 11 13 12 10 0 -3 2 -16
5 -29 2 -14 -1 -28 -8 -33 -10 -6 -10 -8 0 -8 21 0 71 -52 65 -67 -3 -8 -2
-13 3 -12 19 3 37 -1 31 -8 -4 -3 5 -15 20 -25 16 -10 24 -18 18 -18 -5 0 5
-9 23 -20 17 -11 32 -25 32 -32 -1 -8 -7 -5 -15 6 -8 11 -15 15 -15 9 0 -15
25 -34 34 -26 9 9 36 -29 28 -41 -3 -5 2 -7 10 -4 8 4 21 -2 28 -12 8 -11 17
-17 21 -14 4 2 10 0 14 -6 4 -6 11 -7 17 -4 7 5 9 1 5 -9 -3 -10 -2 -17 3 -17
6 0 10 7 10 16 0 8 4 13 9 10 5 -4 23 5 39 19 16 14 33 25 37 25 9 0 36 27 36
37 1 4 5 7 10 5 5 -1 9 2 9 8 0 16 61 80 71 74 5 -3 9 1 9 9 0 8 8 21 18 28
15 13 16 12 3 -4 -8 -9 -11 -20 -7 -24 3 -3 6 -1 6 6 0 7 4 10 8 7 4 -2 9 4 9
15 2 24 52 85 66 81 7 -2 6 2 0 10 -15 18 -10 64 6 60 7 -1 10 2 6 7 -3 6 -11
8 -18 5 -7 -2 -18 5 -25 17 -11 17 -11 24 -1 37 11 14 11 15 -1 5 -19 -18 -35
-16 -21 1 10 12 8 13 -8 9 -13 -3 -21 -1 -21 6 0 7 5 9 12 5 7 -4 8 -3 4 4 -4
6 -13 9 -21 5 -18 -6 -20 13 -2 21 6 3 2 3 -10 0 -17 -4 -23 -1 -23 11 0 9 -4
14 -9 11 -8 -6 -37 24 -69 70 -7 11 -10 12 -6 4 5 -10 1 -9 -14 4 -16 14 -19
22 -11 32 8 10 5 11 -13 7 -18 -4 -20 -3 -8 6 13 9 12 11 -5 12 -11 1 -23 1
-27 0 -5 0 -8 4 -8 9 0 6 -6 9 -12 8 -7 -2 -12 3 -10 10 1 6 0 12 -3 12 -3 0
-6 -3 -6 -7z"/>
<path d="M485 972 c-10 -7 -18 -32 -10 -32 2 0 9 9 15 20 12 22 11 24 -5 12z"/>
<path d="M757 931 c3 -11 14 -28 24 -37 18 -16 19 -16 13 -1 -3 9 -10 17 -15
17 -5 0 -9 6 -9 14 0 8 -4 17 -9 20 -5 4 -7 -3 -4 -13z"/>
<path d="M443 924 c-5 -13 -8 -13 -15 -2 -7 10 -8 9 -4 -4 3 -10 1 -18 -4 -18
-6 0 -10 -5 -10 -11 0 -8 5 -7 16 1 17 15 38 50 29 50 -3 0 -8 -7 -12 -16z"/>
<path d="M906 768 c3 -5 10 -6 15 -3 13 9 11 12 -6 12 -8 0 -12 -4 -9 -9z"/>
<path d="M290 621 c0 -6 4 -13 10 -16 6 -3 7 1 4 9 -7 18 -14 21 -14 7z"/>
<path d="M897 618 c-12 -10 -14 -17 -6 -28 9 -13 10 -13 6 0 -2 8 5 20 17 27
12 7 16 12 10 13 -5 0 -18 -6 -27 -12z"/>
<path d="M316 595 c-9 -26 -7 -32 5 -12 6 10 9 21 6 23 -2 3 -7 -2 -11 -11z"/>
<path d="M789 513 c-13 -14 -18 -23 -11 -19 7 4 12 2 12 -5 0 -7 3 -10 6 -7 5
5 7 14 13 48 1 3 6 -2 11 -10 6 -9 10 -10 10 -3 0 24 -18 22 -41 -4z"/>
<path d="M370 526 c0 -2 7 -7 16 -10 8 -3 12 -2 9 4 -6 10 -25 14 -25 6z"/>
<path d="M415 480 c3 -5 8 -10 11 -10 2 0 4 5 4 10 0 6 -5 10 -11 10 -5 0 -7
-4 -4 -10z"/>
<path d="M736 447 c3 -10 9 -15 12 -12 3 3 0 11 -7 18 -10 9 -11 8 -5 -6z"/>
<path d="M475 430 c3 -5 8 -10 11 -10 2 0 4 5 4 10 0 6 -5 10 -11 10 -5 0 -7
-4 -4 -10z"/>
<path d="M665 389 c-4 -6 -4 -13 -1 -16 3 -4 6 -1 6 6 0 7 5 9 12 5 7 -4 8 -3
4 4 -9 15 -13 15 -21 1z"/>
<path d="M518 383 c7 -3 16 -2 19 1 4 3 -2 6 -13 5 -11 0 -14 -3 -6 -6z"/>
<path d="M494 306 c-30 -13 -49 -38 -37 -50 3 -3 21 1 40 9 32 13 34 13 23 0
-7 -8 -20 -15 -30 -15 -13 0 -19 -11 -24 -41 -4 -22 -4 -45 0 -51 9 -14 83 -3
102 16 14 14 17 13 28 -2 11 -15 15 -15 39 -2 22 12 28 12 35 0 7 -11 13 -12
36 -1 20 9 29 9 34 0 6 -8 9 -8 15 0 5 9 10 9 20 1 8 -7 23 -9 35 -5 26 8 26
25 0 18 -12 -3 -22 1 -26 11 -3 9 -11 13 -18 9 -23 -15 -37 -12 -31 7 3 10 1
21 -5 25 -17 10 -48 -4 -55 -26 -9 -28 -23 -23 -17 6 3 19 0 25 -14 25 -9 0
-25 -7 -34 -15 -13 -12 -21 -13 -42 -3 l-26 13 30 10 c17 5 36 17 41 27 26 41
-51 63 -119 34z m90 -37 c-9 -15 -34 -10 -28 5 3 8 12 12 20 9 8 -3 11 -9 8
-14z m-34 -69 c0 -4 -11 -10 -25 -12 -23 -5 -34 9 -19 24 7 8 44 -2 44 -12z
m83 0 c-7 -28 -23 -36 -23 -11 0 10 6 22 13 24 6 3 13 6 14 6 0 1 -1 -8 -4
-19z m77 0 c0 -11 -7 -20 -15 -20 -13 0 -14 4 -5 20 6 11 13 20 15 20 3 0 5
-9 5 -20z"/>
<path d="M50 303 c-33 -6 -50 -21 -50 -44 0 -18 2 -18 36 -4 48 20 64 19 38
-3 -28 -23 -68 -91 -59 -100 4 -4 15 3 25 16 23 27 23 27 68 -3 42 -29 52 -31
52 -10 0 8 -18 27 -41 42 l-41 27 56 28 c31 16 56 33 56 38 0 15 -17 12 -46
-6 -14 -10 -24 -13 -23 -8 6 33 -7 38 -71 27z"/>
<path d="M807 288 c-28 -28 -57 -69 -57 -82 0 -14 52 38 73 74 22 36 17 38
-16 8z"/>
<path d="M215 241 c-31 -13 -56 -46 -49 -65 8 -20 18 -20 34 -1 11 13 10 14
-4 9 -23 -9 -20 13 4 26 19 10 20 9 15 -20 -4 -22 -1 -30 9 -30 8 0 18 5 21
10 3 6 1 10 -5 10 -6 0 -8 5 -5 10 10 17 16 60 8 59 -5 0 -17 -4 -28 -8z"/>
<path d="M936 223 c-30 -30 -31 -33 -12 -58 12 -17 15 -17 36 -2 17 12 27 13
36 6 9 -7 19 -7 34 1 16 8 25 9 33 1 7 -7 14 -7 24 0 17 14 17 33 1 23 -9 -5
-8 -2 1 10 9 11 17 14 24 7 7 -7 6 -15 -1 -24 -20 -24 0 -28 24 -6 l23 21 -6
-21 c-6 -25 6 -27 33 -6 16 13 16 14 2 9 -21 -7 -24 6 -6 24 6 6 9 15 5 19 -4
4 -13 1 -19 -5 -17 -17 -28 -15 -22 3 7 16 -11 21 -21 5 -3 -5 -13 -6 -22 -3
-10 4 -22 -3 -34 -18 l-19 -24 3 25 c3 37 -24 35 -66 -5 -20 -20 -42 -33 -47
-30 -17 11 -11 25 15 35 25 10 32 24 16 34 -5 3 -20 -6 -35 -21z m94 -23 c0
-11 -7 -20 -15 -20 -18 0 -19 12 -3 28 16 16 18 15 18 -8z"/>
<path d="M271 211 c-18 -25 -19 -30 -6 -41 11 -10 18 -10 29 -1 11 9 15 9 18
-1 4 -10 10 -10 31 1 24 13 29 12 45 -3 18 -16 21 -15 43 4 l24 21 -23 -11
c-22 -11 -23 -10 -20 16 2 15 10 30 18 32 13 5 13 3 1 -11 -7 -10 -9 -17 -5
-17 5 0 15 9 22 20 11 17 10 20 -8 20 -10 0 -30 -12 -43 -26 l-25 -26 5 26 c7
35 -3 33 -22 -5 -9 -17 -19 -29 -22 -26 -2 3 1 15 7 27 19 35 5 34 -29 -2 -17
-18 -31 -28 -31 -22 0 6 7 17 15 24 8 7 15 16 15 21 0 18 -19 8 -39 -20z"/>
<path d="M789 223 c-12 -15 -12 -16 4 -10 9 3 17 2 17 -3 0 -6 -5 -10 -12 -10
-6 0 -8 -3 -5 -6 9 -9 37 15 37 32 0 19 -25 17 -41 -3z"/>
<path d="M850 169 c0 -5 5 -7 10 -4 6 3 10 8 10 11 0 2 -4 4 -10 4 -5 0 -10
-5 -10 -11z"/>
</g>
</svg>
